<mxfile host="app.diagrams.net" modified="2024-05-16T10:15:09.682Z" agent="Mozilla/5.0 (X11; Ubuntu; Linux x86_64; rv:125.0) Gecko/20100101 Firefox/125.0" etag="sBO2Obuc80zVy-HvhAQX" version="24.4.0" type="github">
  <diagram id="prtHgNgQTEPvFCAcTncT" name="Page-1">
    <mxGraphModel dx="1434" dy="680" grid="1" gridSize="10" guides="1" tooltips="1" connect="1" arrows="1" fold="1" page="1" pageScale="1" pageWidth="1169" pageHeight="827" math="0" shadow="0">
      <root>
        <mxCell id="0" />
        <mxCell id="1" parent="0" />
        <mxCell id="dNxyNK7c78bLwvsdeMH5-19" value="NFDI4Earth" style="swimlane;html=1;childLayout=stackLayout;resizeParent=1;resizeParentMax=0;horizontal=0;startSize=20;horizontalStack=0;fillColor=#1ba1e2;fontColor=#ffffff;strokeColor=#006EAF;" parent="1" vertex="1">
          <mxGeometry x="270" y="190" width="570" height="480" as="geometry" />
        </mxCell>
        <mxCell id="dNxyNK7c78bLwvsdeMH5-21" value="OneStop4All" style="swimlane;html=1;startSize=20;horizontal=0;" parent="dNxyNK7c78bLwvsdeMH5-19" vertex="1">
          <mxGeometry x="20" width="550" height="120" as="geometry">
            <mxRectangle x="20" y="120" width="430" height="30" as="alternateBounds" />
          </mxGeometry>
        </mxCell>
        <mxCell id="2lcCUF3nb1PlsJxBdxmF-54" value="SelfAssessment Form" style="strokeWidth=2;html=1;shape=mxgraph.flowchart.document2;whiteSpace=wrap;size=0.25;" vertex="1" parent="dNxyNK7c78bLwvsdeMH5-21">
          <mxGeometry x="39" y="30" width="100" height="60" as="geometry" />
        </mxCell>
        <mxCell id="dNxyNK7c78bLwvsdeMH5-22" value="KnowledgeHub" style="swimlane;html=1;startSize=20;horizontal=0;" parent="dNxyNK7c78bLwvsdeMH5-19" vertex="1">
          <mxGeometry x="20" y="120" width="550" height="120" as="geometry" />
        </mxCell>
        <mxCell id="2lcCUF3nb1PlsJxBdxmF-56" value="" style="strokeWidth=2;html=1;shape=mxgraph.flowchart.database;whiteSpace=wrap;" vertex="1" parent="dNxyNK7c78bLwvsdeMH5-22">
          <mxGeometry x="60" y="30" width="60" height="60" as="geometry" />
        </mxCell>
        <mxCell id="2lcCUF3nb1PlsJxBdxmF-26" value="N4E HelpDesk" style="swimlane;html=1;startSize=20;horizontal=0;" vertex="1" parent="dNxyNK7c78bLwvsdeMH5-19">
          <mxGeometry x="20" y="240" width="550" height="120" as="geometry" />
        </mxCell>
        <mxCell id="2lcCUF3nb1PlsJxBdxmF-53" value="N4E Consultant" style="swimlane;html=1;startSize=20;horizontal=0;" vertex="1" parent="dNxyNK7c78bLwvsdeMH5-19">
          <mxGeometry x="20" y="360" width="550" height="120" as="geometry" />
        </mxCell>
        <mxCell id="dNxyNK7c78bLwvsdeMH5-20" value="Applicant" style="swimlane;html=1;startSize=20;horizontal=0;fillColor=#60a917;fontColor=#ffffff;strokeColor=#2D7600;" parent="1" vertex="1">
          <mxGeometry x="160" y="30" width="680" height="120" as="geometry" />
        </mxCell>
        <mxCell id="dNxyNK7c78bLwvsdeMH5-25" value="" style="edgeStyle=orthogonalEdgeStyle;rounded=0;orthogonalLoop=1;jettySize=auto;html=1;" parent="dNxyNK7c78bLwvsdeMH5-20" source="dNxyNK7c78bLwvsdeMH5-23" edge="1">
          <mxGeometry relative="1" as="geometry">
            <mxPoint x="120" y="60" as="targetPoint" />
          </mxGeometry>
        </mxCell>
        <mxCell id="dNxyNK7c78bLwvsdeMH5-23" value="" style="ellipse;whiteSpace=wrap;html=1;fillColor=#1ba1e2;fontColor=#ffffff;strokeColor=#006EAF;" parent="dNxyNK7c78bLwvsdeMH5-20" vertex="1">
          <mxGeometry x="40" y="40" width="40" height="40" as="geometry" />
        </mxCell>
        <mxCell id="dNxyNK7c78bLwvsdeMH5-32" value="Badge" style="ellipse;whiteSpace=wrap;html=1;fillColor=#60a917;fontColor=#ffffff;strokeColor=#2D7600;" parent="dNxyNK7c78bLwvsdeMH5-20" vertex="1">
          <mxGeometry x="630" y="40" width="40" height="40" as="geometry" />
        </mxCell>
        <mxCell id="2lcCUF3nb1PlsJxBdxmF-50" value="" style="edgeStyle=orthogonalEdgeStyle;rounded=0;orthogonalLoop=1;jettySize=auto;html=1;" edge="1" parent="dNxyNK7c78bLwvsdeMH5-20" source="2lcCUF3nb1PlsJxBdxmF-24" target="2lcCUF3nb1PlsJxBdxmF-49">
          <mxGeometry relative="1" as="geometry" />
        </mxCell>
        <mxCell id="2lcCUF3nb1PlsJxBdxmF-24" value="Update re3data" style="rounded=1;whiteSpace=wrap;html=1;" vertex="1" parent="dNxyNK7c78bLwvsdeMH5-20">
          <mxGeometry x="120" y="30" width="120" height="60" as="geometry" />
        </mxCell>
        <mxCell id="2lcCUF3nb1PlsJxBdxmF-59" style="edgeStyle=orthogonalEdgeStyle;rounded=0;orthogonalLoop=1;jettySize=auto;html=1;" edge="1" parent="dNxyNK7c78bLwvsdeMH5-20" source="2lcCUF3nb1PlsJxBdxmF-49">
          <mxGeometry relative="1" as="geometry">
            <mxPoint x="440" y="60" as="targetPoint" />
          </mxGeometry>
        </mxCell>
        <mxCell id="2lcCUF3nb1PlsJxBdxmF-49" value="Do SelfAssessment" style="rounded=1;whiteSpace=wrap;html=1;" vertex="1" parent="dNxyNK7c78bLwvsdeMH5-20">
          <mxGeometry x="279" y="30" width="120" height="60" as="geometry" />
        </mxCell>
        <mxCell id="2lcCUF3nb1PlsJxBdxmF-60" value="Apply" style="rounded=1;whiteSpace=wrap;html=1;" vertex="1" parent="dNxyNK7c78bLwvsdeMH5-20">
          <mxGeometry x="440" y="30" width="120" height="60" as="geometry" />
        </mxCell>
        <mxCell id="2lcCUF3nb1PlsJxBdxmF-25" style="edgeStyle=orthogonalEdgeStyle;rounded=0;orthogonalLoop=1;jettySize=auto;html=1;entryX=0.5;entryY=0;entryDx=0;entryDy=0;entryPerimeter=0;dashed=1;" edge="1" parent="1" source="2lcCUF3nb1PlsJxBdxmF-24" target="2lcCUF3nb1PlsJxBdxmF-20">
          <mxGeometry relative="1" as="geometry" />
        </mxCell>
        <mxCell id="2lcCUF3nb1PlsJxBdxmF-55" style="edgeStyle=orthogonalEdgeStyle;rounded=0;orthogonalLoop=1;jettySize=auto;html=1;entryX=0.5;entryY=0;entryDx=0;entryDy=0;entryPerimeter=0;dashed=1;endArrow=none;endFill=0;" edge="1" parent="1" source="2lcCUF3nb1PlsJxBdxmF-49" target="2lcCUF3nb1PlsJxBdxmF-54">
          <mxGeometry relative="1" as="geometry" />
        </mxCell>
        <mxCell id="2lcCUF3nb1PlsJxBdxmF-57" style="edgeStyle=orthogonalEdgeStyle;rounded=0;orthogonalLoop=1;jettySize=auto;html=1;entryX=1;entryY=0.5;entryDx=0;entryDy=0;entryPerimeter=0;startArrow=classic;startFill=1;" edge="1" parent="1" source="2lcCUF3nb1PlsJxBdxmF-56" target="2lcCUF3nb1PlsJxBdxmF-20">
          <mxGeometry relative="1" as="geometry">
            <Array as="points">
              <mxPoint x="380" y="767" />
            </Array>
          </mxGeometry>
        </mxCell>
        <mxCell id="2lcCUF3nb1PlsJxBdxmF-58" value="Harvest/Synchronize" style="edgeLabel;html=1;align=center;verticalAlign=middle;resizable=0;points=[];" vertex="1" connectable="0" parent="2lcCUF3nb1PlsJxBdxmF-57">
          <mxGeometry x="-0.5091" y="-1" relative="1" as="geometry">
            <mxPoint x="-9" y="218" as="offset" />
          </mxGeometry>
        </mxCell>
        <mxCell id="2lcCUF3nb1PlsJxBdxmF-3" value="External Source" style="swimlane;html=1;startSize=20;horizontal=0;fillColor=#f0a30a;fontColor=#000000;strokeColor=#BD7000;" vertex="1" parent="1">
          <mxGeometry x="40" y="707" width="800" height="120" as="geometry" />
        </mxCell>
        <mxCell id="2lcCUF3nb1PlsJxBdxmF-20" value="&lt;b&gt;&lt;font color=&quot;#1f78ff&quot;&gt;re&lt;/font&gt;&lt;font color=&quot;#009900&quot;&gt;3&lt;/font&gt;data&lt;/b&gt;" style="shape=cylinder3;whiteSpace=wrap;html=1;boundedLbl=1;backgroundOutline=1;size=15;gradientColor=#009900;fillColor=none;" vertex="1" parent="2lcCUF3nb1PlsJxBdxmF-3">
          <mxGeometry x="150" y="20" width="60" height="80" as="geometry" />
        </mxCell>
        <mxCell id="2lcCUF3nb1PlsJxBdxmF-21" value="&lt;div&gt;Fuji-Tool&lt;/div&gt;&lt;div&gt;(AAS or self hosted)&lt;br&gt;&lt;/div&gt;" style="rounded=1;whiteSpace=wrap;html=1;absoluteArcSize=1;arcSize=14;strokeWidth=2;" vertex="1" parent="2lcCUF3nb1PlsJxBdxmF-3">
          <mxGeometry x="450" y="25" width="70" height="70" as="geometry" />
        </mxCell>
      </root>
    </mxGraphModel>
  </diagram>
</mxfile>
